<svg xmlns="http://www.w3.org/2000/svg" version="1.1" xmlns:xlink="http://www.w3.org/1999/xlink" xmlns:svgjs="http://svgjs.dev/svgjs" width="2000" height="2250" viewBox="0 0 2000 2250"><g transform="matrix(1,0,0,1,0,0)"><svg viewBox="0 0 320 360" data-background-color="#ffffff" preserveAspectRatio="xMidYMid meet" height="2250" width="2000" xmlns="http://www.w3.org/2000/svg" xmlns:xlink="http://www.w3.org/1999/xlink"><g id="tight-bounds" transform="matrix(1,0,0,1,0,0)"><svg viewBox="0 0 320 360" height="360" width="320"><g><svg></svg></g><g><svg viewBox="0 0 320 360" height="360" width="320"><g><path xmlns="http://www.w3.org/2000/svg" d="M165.217 303.356c-1.404-1.755-2.809-0.702-2.808-1.755-8.426 2.106-24.223-3.511-30.894-2.809 1.404-2.106-2.106-1.755-2.106-3.159-1.404 2.106-2.809 0-4.915 0.702-2.106-5.266-10.532-1.404-11.585-8.075-4.915 0-6.67-2.809-11.586-5.617 0.351-0.351 0.702-0.351 1.054-0.702-2.457-0.351-2.457-1.755-4.564-1.755l0.702-1.405c-3.862-0.702-5.266-6.67-10.883-8.776-1.755-0.351-5.617-6.319-7.723-7.724-1.053-0.702-2.809-0.702-0.352-1.053-0.351-0.351-0.351-1.053 0-1.404-2.457-0.702-2.809-2.809-5.968-3.862-0.351-1.053 0.702-1.755 0-2.457-0.702-0.351-1.755 0.351-2.457 0-0.351 6.319 6.67 7.021 8.777 12.287-0.702-0.702-1.755-2.809-2.458-1.404-0.351 1.053 2.809 4.915 2.809 2.808-1.053 0.702-1.404-1.053-0.703-1.404 1.053 1.755 3.16 1.404 3.16 2.809-1.053 1.053-2.457-1.053-2.106 0.702 3.16 1.755 2.809 3.511 4.563 5.968-1.404-1.755-1.755 1.404-3.159 0-0.351-5.266-6.319-4.213-6.319-9.479-0.702-1.755-1.404-0.351-2.458-1.053 1.404-1.404-4.213-6.319-4.213-4.564-1.755-2.106-0.702-2.809-1.053-4.213-1.404-0.351-0.351 1.404-1.404 0.351 1.404-2.457-1.755-5.617-3.862-8.074l1.405-0.702c-2.457-1.404-2.809-4.213-4.564-7.373-2.106 3.16 4.213 10.181 3.159 11.585 0 0.351 2.457 3.16 3.16 4.564 2.809 4.915 4.915 10.883 8.777 13.692-0.702-0.351-0.351-2.457 0.702-1.404 0 1.053-0.702 2.106-0.702 3.159 2.106 2.106 3.862 3.862 5.968 5.968-4.564-2.809-9.128-5.617-12.288-9.83 1.755-0.351 3.511 2.809 4.915 2.458-3.511-2.809-2.457-3.862-3.861-7.372-1.404-1.053 0.351 1.404-1.054 1.755-4.564-4.213-8.075-6.67-10.181-10.532 0.351-0.351 0.702-0.702 0.703-1.404-0.351-0.351-0.351-0.351-0.703-0.702 2.106 2.106 2.809 3.862 5.266 4.212-1.053-1.053 0-1.404-1.404-2.457-0.702-1.404-1.755 0.702-2.457-0.351 0.702-1.053 0-2.457 0-3.511-0.702 0-1.404 0-1.756-1.053-0.702-0.351-1.053 0-1.404 0.702-0.351-0.351-0.351-1.053-0.702-1.404v-0.351c-0.351-0.351-0.702-1.053-1.053-1.405-2.809-7.372-4.564-17.202-8.426-23.521 1.053-4.213-0.702-12.638-1.755-14.745 1.053-1.755 0.351-9.83-0.351-11.234-1.755 0.702 0.351 4.564-1.404 5.617-1.755-7.723 1.053-16.5 0.351-23.521 0.702 0 1.404 0 1.404-0.351-1.053-1.053 0.702-3.16 0.351-5.617 1.404-3.16-3.16 4.564-3.16 7.723-0.351 0.702-1.755 0-1.404 1.756 0 2.457 0.702 7.372-0.702 10.883-0.702 0-0.702-0.702-1.404-0.351-0.351 1.755-0.702 3.862-1.053 5.617-0.351-0.702-0.702-1.755-0.703-2.107-1.755-8.777 0-18.958-0.702-26.33 1.404 0 1.404-2.106 2.458-2.808-0.351 2.809-1.053 6.319 0.702 7.021 1.404-13.692 4.213-28.787 10.532-43.532 4.564-10.883 11.234-21.766 19.308-30.543 0.702 1.053-0.351 3.511 0 4.564 7.021-7.372 11.585-16.149 19.309-21.064 0.351 1.755-3.16 3.16-3.16 4.564 3.16-3.16 4.213-2.106 7.724-3.159 1.053-1.404-1.404 0-1.756-1.405 2.106-1.404 3.511-3.16 4.915-4.212 0 0.351-0.351 0.351-0.351 0.702 3.862-1.053 4.213-3.16 7.022-3.862-0.351-0.351-1.053-0.702-2.107-0.351 0.702-0.351 1.755-1.053 2.809-1.404-0.351 0-0.351 0.351-0.702 0.351 2.106-1.053 0.351 0.351 0.351 1.053 0.351 0 0.702-0.351 0.702-0.351-2.106 1.404-3.511 2.106-4.213 4.564 1.053-0.702 1.404 0 2.809-1.054 1.404-0.702-0.351-1.755 0.702-2.457 1.053 0.702 2.457 0.351 3.51 0.351 0-0.702 0.351-1.404 1.054-1.755 0.351-0.702 0-1.053-0.352-1.053 0.351-0.351 0.702-0.351 1.405-0.703 0 0 0.351 0 0.351 0.351 5.968-2.809 12.638-5.266 18.957-7.372 3.862-0.351 8.777-0.351 10.883-2.808-0.702 0-1.404 0.351-1.755 0 0.351 0 1.053-0.351 1.404-0.351 0.702 0.702 1.755 0 0.702 1.404 0.351 0 0.351 0 0.703-0.351 0 0.351 0 0.351 0.351 0.702 0.351 0 0.702-0.351 1.053-1.053 0.351 0 0.702 0 1.053-0.351l-0.351 0.351c2.809-0.702 5.266-0.351 9.128-1.054 0-0.351 0-0.702 0-1.053 0.702 0 1.053-0.351 1.755-0.351v0.351c1.404-0.702 2.809 0.702 2.808 0 0.351 0 0.351 0 0.703 0 0 0.702-0.351 1.053-0.351 1.405 1.755 0 2.809 0 3.51-1.054-0.351-0.351-0.702-0.351-1.053-0.351 0.702 0 1.404-0.351 2.106-0.702 1.053 0.351 1.404 0.702 1.405 2.107 1.755-3.16 7.372 0.702 9.829 0 1.053 0 0.702-1.404 1.405-2.107 0.351 0 0.702 0 1.053 0 1.755 1.404 4.213 2.809 7.372 3.16-2.809-0.702 0.351-1.053 0.702-1.405-0.702 0-0.702-0.351-0.702-0.702 1.053 0 2.106 0.351 3.16 0.351 0 0.702 0.351 1.053 1.053 1.054 0.702 0 0.702-0.351 0.702-1.054 1.053 0 1.755 0 2.809 0.351-0.351 1.404 1.755 1.755 2.457 2.809-2.809-0.702-5.968-1.755-7.021 0 11.234 2.457 23.521 5.968 35.457 11.936 0 0 0 0 0 0.351h0.352c2.106 1.053 4.213 2.106 6.319 3.16 1.404 0.702 2.457 1.404 3.861 2.457 0 0.351 0 0.702 0.703 0.702h0.351c1.404 1.053 2.809 1.755 4.212 2.809 1.404 2.106 2.809 4.915 5.266 4.213 5.266 8.075 10.883 11.234 15.447 19.659 0.351-1.404 1.404 3.16 3.16 3.511-2.809-0.351 1.755 1.755-1.053 1.404 2.457 2.457 3.16 3.511 3.51 6.319-0.702-1.404-1.053-1.755-1.404-0.351-0.351 2.106 2.457-0.351 3.511 1.756-2.106 0-1.404 1.404-1.054 3.159 1.053-1.053 0.702-2.106 1.756-1.755 1.404 1.404-0.702 1.755-0.351 2.809 1.053-1.404 1.404-0.702 2.808 0-1.755 0.351 1.053 2.809-1.053 1.755 1.404 1.755 1.755 2.809 1.053 4.564-1.404-2.106-0.351-3.511-2.457-3.16 4.213 3.511 2.106 11.585 7.021 12.287-3.16 0.702 0 2.106-1.755 2.458 2.106 0.702 1.053 3.511 3.51 4.213-0.351 1.755-1.053 2.809-1.404 4.563 1.053 1.404 1.404 4.213 3.16 4.564-1.053 1.053-0.351 3.862-1.404 4.915 1.404-0.702 2.106-0.702 3.159 0.702-1.755 1.404-0.351 2.809-1.404 3.16 3.16 8.075-0.702 24.575 1.053 30.894-2.106-1.053-1.404 2.457-2.808 2.457 2.457 1.053 0.351 2.809 1.404 4.564-4.915 2.809 0 10.532-6.67 12.287 0.702 4.915-2.106 7.021-4.213 12.288-0.351-0.351-0.351-0.702-0.702-1.054-0.351 2.457-1.755 2.809-1.054 4.915l-1.404-0.702c0 3.862-5.968 5.968-7.372 11.936-0.351 1.755-5.617 6.319-7.022 8.777-0.702 1.053-0.351 2.809-1.053 0.351-0.351 0.351-1.053 0.351-1.404 0.351-0.351 2.457-2.457 3.16-3.16 6.319-0.702 0.351-1.755-0.702-2.457 0.351 0 0.702 0.702 1.755 0.351 2.458 6.319-0.351 6.319-7.723 11.234-10.181-0.351 1.053-2.457 2.106-1.053 2.808 1.053 0 4.213-3.511 2.457-3.159 1.053 0.702-1.053 1.404-1.404 1.053 1.755-1.404 1.053-3.16 2.458-3.511 1.053 0.702-1.053 2.457 1.053 2.107 1.404-3.16 3.16-3.511 5.266-5.266-1.404 1.404 1.755 1.755 0.351 3.159-5.266 1.053-3.511 7.021-8.777 7.724-1.404 1.053-0.351 1.404-0.702 2.457-1.755-1.053-5.617 4.915-4.213 4.564-1.755 1.755-2.809 1.053-4.212 1.404-0.351 1.404 1.404 0.351 0.702 1.405-2.457-1.053-5.617 2.457-7.724 4.915l-1.053-1.054c-1.053 2.809-3.862 3.16-7.021 5.266 3.511 1.755 9.479-5.617 11.234-4.564 0.351 0 3.16-2.809 4.213-3.861 4.564-3.511 10.181-6.319 12.287-10.181-0.351 0.702-2.457 0.702-1.404-0.351 1.053-0.351 2.106 0.351 3.159 0.351 5.617-7.723 12.638-14.043 17.905-23.17 0.351-0.351 0.702-1.053 1.053-1.756-0.702 2.106-1.755 3.862-2.458 5.968-5.617 3.862-7.723 15.096-14.393 16.851 0.351 3.862-3.16 4.915-4.915 9.479-1.053 1.404-1.755-1.053-2.809 0.702 1.053 4.915-8.777 4.564-8.425 9.128-0.702 0.351-1.755 0.702-2.458 1.404h-0.351c-0.351 0.351-0.351 0.351-0.702 0.702-1.755 1.053-3.16 2.106-4.564 3.16-4.915 2.809-11.585 4.915-16.851 7.723v-0.351c-1.404 0.702-3.16 0.351-2.809 1.756-1.053 0.702-2.106 1.404-3.159 2.106-0.351 0-0.351 0-0.702 0 0 0-0.351-0.351-0.702-0.351-0.702 0-0.702 0-1.054 0.351-4.564 0.351-10.532 2.457-12.287 3.862-1.755-1.053-9.83 0.702-11.234 1.404 0.702 1.053 2.809 0 4.564 0-1.053 0.351-2.106 0.702-2.458 1.404-0.351 0-0.351 0-0.702 0-0.351-1.053-1.404 0-1.755-0.351h0.351c-0.351-1.404-1.404-2.106-3.16-1.755 0 0.702 0 1.053-0.351 1.755 0.702 0 2.809-1.053 2.809 0-0.351 0-0.351 0.351 0 0.351-0.702 0.702-1.755 0.702-2.458 1.054-1.404 0-3.16 0-4.563 0-0.351-0.351-0.702-0.351-1.405-0.703-0.351 0.351-1.053 0.351-1.404 0.703-2.106 0-4.564 0.351-6.319 0.702 0-0.702 0-1.404-0.702-1.405-1.053 1.404-3.16-0.351-5.617 0.352-2.457-0.702 1.404 1.053 4.915 1.755-0.351 0.351-0.702 0.702-1.756 1.053M116.068 308.271c-4.915-4.564-15.096-6.67-16.851-10.181-2.809-0.351-7.021-5.617-10.532-6.319 1.755 0 0.351-1.053 0-1.755-0.702 0.702-1.404 1.053-2.106 1.053 0-2.809-2.809-4.564-5.266-6.319 1.755 1.053 3.16 1.755 5.266 2.106 0-0.702 0-1.404 0.702-1.404 2.457 2.457 5.266 4.915 8.425 7.372 4.213 3.862 25.979 13.692 29.841 15.447 0 0-0.702 1.404-0.351 1.404 1.755 1.053 3.16-1.053 3.511 1.404-5.617 0.702-7.723-3.16-12.639-2.808M277.909 226.824v0.351 0c-0.351 0 0-0.351 0-0.351M136.079 64.281c-0.351 0.351-0.702 0.351-0.702 0.351 0-0.351 0.351-0.351 0.702-0.351M129.409 66.036c0 0.351 0 0.351 0 0 0 0.351 0 0.351 0 0 0 0.351 0 0 0 0M106.238 73.408v0c0.351-0.351 0.351-0.351 0.703-0.351-0.351 0-0.702 0.351-0.703 0.351M162.409 61.823c-0.702 0-1.053 0-1.404-0.351 0.351 0 0.702 0 1.053 0h0.351c0 0 0 0 0 0.351M168.728 62.525c-0.351-0.351-1.404-0.702-2.457-0.702 0-0.351 0.351-0.702 0.351-0.702 0.351 0 0.702 0 1.053 0 0 0 0.351 0 0.351 0.351 0 0 0 0 0-0.351 0.351 0 0.351 0 0.702 0 0.351 0.702 0.702 1.053 0 1.404M180.313 63.579c-1.755 0.351-2.809-0.351-4.564-1.405 1.053 0 2.457 0.351 3.511 0.702 0.351 0 0.702 0.351 1.053 0.703M305.292 113.43c-0.702 0.351-1.053 0.351-1.755-1.053-5.617-11.936-15.798-29.138-30.543-43.532-14.394-14.745-33.702-26.681-51.255-33.001 1.053 0.351 2.457 1.053 1.755 1.756-15.447-5.968-30.192-9.479-44.234-10.883-37.915-5.968-77.585 2.106-108.128 21.766 0.351 0.702 0.351 1.053-0.702 1.755-11.234 7.021-27.032 19.309-39.671 35.458-12.638 16.149-22.468 36.511-26.681 54.766 0.351-1.053 0.702-2.809 1.405-2.107-9.128 36.16-6.67 67.053 5.968 93.735 0.702-0.702-1.755-4.213 0.351-3.862 1.404 3.862 3.16 8.075 5.266 11.936 2.457 5.617 5.266 12.989 9.128 14.745-9.83-19.309-16.5-41.426-17.203-61.085 1.404 2.809 1.053 8.777 3.16 11.234 0.702-13.34-2.457-31.245 2.106-43.883-1.053 6.67-1.755 15.798-1.053 24.925 0 6.67 3.16 25.277 5.266 27.032-0.351-0.351-0.351-2.106 0-2.106 1.053 2.106-1.404 3.16 0.351 3.511 0-0.702 0.351-0.702 0.702-0.703 3.511 7.723 8.075 19.66 11.585 25.628 4.213 7.723 9.83 14.745 16.149 21.064 0 0.351 0.351 0.351 0.352 0.702 0.702 1.755 3.16 3.862 3.861 5.266 0.351 0.702-0.351 1.755 0 2.458 5.266 9.83 12.989 19.66 22.468 27.383 5.968 7.021 15.447 14.394 27.032 20.713 11.234 5.968 24.223 10.883 36.16 13.691 8.426 2.106 18.606 2.457 24.926 3.862 8.426 1.755 23.17-0.702 30.542-2.107 44.234-6.67 88.117-36.862 110.235-80.393 22.819-43.883 22.117-97.596 2.457-138.671" fill="#ffffff" fill-rule="nonzero" stroke="none" stroke-width="1" stroke-linecap="butt" stroke-linejoin="miter" stroke-miterlimit="10" stroke-dasharray="" stroke-dashoffset="0" font-family="none" font-weight="none" font-size="none" text-anchor="none" style="mix-blend-mode: normal" data-fill-palette-color="tertiary"></path></g><g transform="matrix(1,0,0,1,86.9328749133634,108)"><svg viewBox="0 0 146.1342501732732 144" height="144" width="146.1342501732732"><g><svg viewBox="0 0 146.1342501732732 144" height="144" width="146.1342501732732"><g><svg viewBox="0 0 160 157.6632443980873" height="144" width="146.1342501732732"><g transform="matrix(1,0,0,1,0,91.41891496702904)"><svg viewBox="0 0 160 66.24432943105826" height="66.24432943105826" width="160"><g id="textblocktransform"><svg viewBox="0 0 160 66.24432943105826" height="66.24432943105826" width="160" id="textblock"><g><svg viewBox="0 0 160 42.70718232044199" height="42.70718232044199" width="160"><g transform="matrix(1,0,0,1,0,0)"><svg width="160" viewBox="4.699999809265137 -38.20000076293945 144.79000854492188 38.650001525878906" height="42.70718232044199" data-palette-color="#6b7280"><path d="M6.6 0.25Q5.8 0.25 5.25-0.15 4.7-0.55 4.7-1.15L4.7-1.15 4.7-36.5Q4.7-37.3 5.2-37.75 5.7-38.2 6.6-38.2L6.6-38.2Q7.5-38.2 8.03-37.77 8.55-37.35 8.55-36.5L8.55-36.5 8.45-18.8 12.1-20.85Q19.65-25.1 22.1-26.6L22.1-26.6Q22.85-27.05 23.25-27.05L23.25-27.05Q23.95-27.05 24.48-26.33 25-25.6 25-24.75L25-24.75Q25-24.2 23.9-23.55L23.9-23.55 8.5-14.4 24.1-3.3Q24.6-2.9 24.6-2.2L24.6-2.2Q24.6-1.45 23.98-0.83 23.35-0.2 22.7-0.2L22.7-0.2Q22.1-0.2 21.2-0.75L21.2-0.75 16.05-4.35Q12.4-7.05 8.5-9.7L8.5-9.7 8.45-1.2Q8.45-0.55 7.93-0.15 7.4 0.25 6.6 0.25L6.6 0.25ZM29.9-16.75Q29.3-16.75 28.92-17.3 28.55-17.85 28.55-18.6L28.55-18.6Q28.55-19.35 28.95-19.8 29.35-20.25 30-20.25L30-20.25Q34.6-20.15 36.15-20.15L36.15-20.15Q40.45-20.15 43.75-20.4L43.75-20.4Q45.65-20.55 45.65-18.65L45.65-18.65Q45.65-17.95 45.12-17.45 44.6-16.95 43.75-16.9L43.75-16.9Q38.4-16.75 29.9-16.75L29.9-16.75ZM65.45-8.15Q66.34-8.15 66.72-7.73 67.09-7.3 67.09-6.2L67.09-6.2Q67.09-3.6 65.37-1.8 63.65 0 60.95 0L60.95 0Q57.2 0 55.57-3.3 53.95-6.6 53.95-13.55L53.95-13.55Q53.95-16.15 54.2-19.5L54.2-19.5Q53.65-19.55 51.1-19.75L51.1-19.75Q49.6-19.9 49.6-21.4L49.6-21.4Q49.6-22.9 51.05-22.9L51.05-22.9Q51.45-22.9 52.75-22.8L52.75-22.8Q53.85-22.7 54.45-22.7L54.45-22.7Q54.8-26.4 55.65-32L55.65-32Q55.75-32.75 56.17-33.13 56.6-33.5 57.55-33.5L57.55-33.5Q58.5-33.5 59.05-33 59.6-32.5 59.5-31.75L59.5-31.75 59.25-30.1Q58.5-24.3 58.3-22.5L58.3-22.5 62.3-22.4Q63.05-22.4 63.42-22.1 63.8-21.8 63.8-21.05L63.8-21.05Q63.8-20.1 63.42-19.78 63.05-19.45 62-19.4L62-19.4Q60.45-19.35 58-19.35L58-19.35Q57.75-16.2 57.75-13.55L57.75-13.55Q57.75-8.7 58.52-5.95 59.3-3.2 61.35-3.2L61.35-3.2Q62.45-3.2 63.1-4.05 63.75-4.9 63.84-6.6L63.84-6.6Q63.9-7.4 64.17-7.78 64.45-8.15 65.45-8.15L65.45-8.15ZM84.94-25.7Q88.14-25.7 89.94-23.68 91.74-21.65 91.74-18.75L91.74-18.75Q91.74-16 90.09-14.43 88.44-12.85 85.84-12.85L85.84-12.85Q84.84-12.85 84.42-13.15 83.99-13.45 83.99-14.25L83.99-14.25Q83.99-15.55 85.24-15.6L85.24-15.6Q88.49-15.9 88.49-18.8L88.49-18.8Q88.49-20.35 87.64-21.45 86.79-22.55 84.89-22.55L84.89-22.55Q82.89-22.55 81.42-20.85 79.94-19.15 79.09-16.63 78.24-14.1 78.09-11.65L78.09-11.65Q77.79-7.05 77.79-2.95L77.79-2.95Q77.79-0.9 77.42-0.25 77.04 0.4 75.94 0.4L75.94 0.4Q74.84 0.4 74.42-0.13 73.99-0.65 73.99-1.95L73.99-1.95 73.94-11.5Q73.94-14.8 73.44-20.2L73.44-20.2Q73.14-23.35 73.09-24.7L73.09-24.7Q73.04-25.5 73.54-25.93 74.04-26.35 74.94-26.35L74.94-26.35Q76.49-26.35 76.59-24.85L76.59-24.85Q76.89-21.7 76.94-18.7L76.94-18.7Q77.79-22 79.89-23.85 81.99-25.7 84.94-25.7L84.94-25.7ZM121.54-3.25Q122.24-3.15 122.59-2.85 122.94-2.55 122.94-1.75L122.94-1.75Q122.94-1 122.57-0.55 122.19-0.1 121.54-0.1L121.54-0.1Q119.49-0.1 118.52-0.75 117.54-1.4 116.84-3.2L116.84-3.2Q114.59 0.45 108.84 0.45L108.84 0.45Q104.79 0.45 102.29-1.35 99.79-3.15 98.72-5.93 97.64-8.7 97.64-11.8L97.64-11.8Q97.64-15.15 98.99-18.1 100.34-21.05 102.97-22.85 105.59-24.65 109.24-24.65L109.24-24.65Q111.74-24.65 113.59-23.65 115.44-22.65 116.49-20.85L116.49-20.85 116.69-22.5Q116.79-24.35 118.39-24.35L118.39-24.35Q119.39-24.35 119.92-23.88 120.44-23.4 120.34-22.75L120.34-22.75 120.19-21.5Q119.84-19.4 119.69-17.15L119.69-17.15Q119.54-15.25 119.54-12.05L119.54-12.05 119.54-8.6Q119.54-6.45 119.67-5.43 119.79-4.4 120.19-3.85 120.59-3.3 121.54-3.25L121.54-3.25ZM115.74-8.65Q115.79-11 115.79-14.7L115.79-14.7Q115.79-17.15 114.74-18.68 113.69-20.2 112.19-20.85 110.69-21.5 109.34-21.5L109.34-21.5Q106.69-21.5 104.92-20 103.14-18.5 102.32-16.25 101.49-14 101.49-11.8L101.49-11.8Q101.49-8.3 103.22-5.53 104.94-2.75 108.89-2.75L108.89-2.75Q111.84-2.75 113.77-4.28 115.69-5.8 115.74-8.65L115.74-8.65ZM149.14-2.6Q149.49-2.2 149.49-1.8L149.49-1.8Q149.49-1.05 148.89-0.53 148.29 0 147.54 0L147.54 0Q146.79 0 146.34-0.6L146.34-0.6Q143.19-4.7 138.59-10.6L138.59-10.6 131.54-0.55Q131.09 0.1 130.19 0.1L130.19 0.1Q129.39 0.1 128.81-0.43 128.24-0.95 128.24-1.65L128.24-1.65Q128.24-2 128.44-2.3L128.44-2.3Q130.44-5.05 136.39-13.45L136.39-13.45Q135.39-14.7 133.99-16.55L133.99-16.55Q131.49-19.7 128.94-23.05L128.94-23.05Q128.74-23.35 128.74-23.75L128.74-23.75Q128.74-24.3 129.41-24.88 130.09-25.45 130.74-25.45L130.74-25.45Q131.04-25.45 131.34-25.33 131.64-25.2 131.79-25L131.79-25 132.94-23.5Q136.59-18.85 138.44-16.45L138.44-16.45 144.39-24.95Q144.79-25.5 145.34-25.5L145.34-25.5Q146.09-25.5 146.76-24.88 147.44-24.25 147.44-23.6L147.44-23.6Q147.44-23.35 147.29-23.1L147.29-23.1 140.64-13.6 149.14-2.6Z" opacity="1" transform="matrix(1,0,0,1,0,0)" fill="#ffffff" class="wordmark-text-0" data-fill-palette-color="primary" id="text-0"></path></svg></g></svg></g><g transform="matrix(1,0,0,1,0,52.78932309392265)"><svg viewBox="0 0 160 13.455006337135615" height="13.455006337135615" width="160"><g transform="matrix(1,0,0,1,0,0)"><svg width="160" viewBox="2.8600001335144043 -32.400001525878906 385.2200012207031 32.400001525878906" height="13.455006337135615" data-palette-color="#97978d"><path d="M22.09 0L2.88-32.4 14.36-32.4 23.05-17.99 29.88-29.71 29.88-13.4 22.09 0ZM42.26 0L31.47 0 31.47-32.4 42.26-32.4 42.26 0ZM12.94 0L2.86 0 2.86-29.39 12.94-12.48 12.94 0ZM79-32.4L79-6.47 72.53 0 64.21 0 64.21-6.47 68.21-6.47 68.21-32.4 79-32.4ZM58.52-32.4L58.52-6.47 62.5-6.47 62.5 0 54.2 0 47.7-6.47 47.7-32.4 58.52-32.4ZM108.83 0L104.49 0 104.49-12.13 90.47-12.13 83.98-18.63 83.98-25.93 90.47-32.4 94.14-32.4 94.14-20.9 109.03-20.9 115.3-14.4 115.3-6.47 108.83 0ZM104.49-26.56L95.84-26.56 95.84-32.4 108.81-32.4 114.42-26.76 114.42-23.32 104.49-23.32 104.49-26.56ZM83.98-6.47L83.98-9.72 94.77-9.72 94.77-5.86 102.78-5.86 102.78 0 89.42 0 83.98-6.47ZM120.04 0L120.04-6.91 123.28-6.91 123.28-25.51 120.04-25.51 120.04-32.4 137.32-32.4 137.32-25.51 134.07-25.51 134.07-6.91 137.32-6.91 137.32 0 120.04 0ZM152.85-32.4L152.85 0 148.55 0 142.06-6.47 142.06-25.93 148.55-32.4 152.85-32.4ZM161.73-25.93L154.56-25.93 154.56-32.4 166.05-32.4 172.52-25.93 172.52-19.41 161.73-19.41 161.73-25.93ZM166.05 0L154.56 0 154.56-6.47 161.73-6.47 161.73-11.21 172.52-11.21 172.52-6.47 166.05 0ZM201.18 0L190.59 0 190.59-32.4 201.18-32.4 201.18 0ZM210.73-25.93L202.89-25.93 202.89-32.4 215-32.4 221.47-25.93 221.47-14.82 215-8.33 202.89-8.33 202.89-14.82 210.73-14.82 210.73-25.93ZM237.02 0L226.23 0 226.23-32.4 237.02-32.4 237.02 0ZM253.86 0L238.73 0 238.73-6.47 244.07-6.47 244.07-10.57 253.86-10.57 253.86 0ZM279.79 0L278.42-3.54 267.83-3.54 270.07-9.96 275.93-9.96 267.27-32.4 277.79-32.4 290.7 0 279.79 0ZM270.88-18.07L264.95 0 254.52 0 266.09-30.93 270.88-18.07ZM296.95 0L296.95-10.3 285.96-32.4 296.56-32.4 307.77-9.55 307.77 0 296.95 0ZM318.9-32.4L308.45-11.82 303.2-22.46 308.52-32.4 318.9-32.4ZM342.24-13.31L331.91-13.31 331.91 0 321.12 0 321.12-32.4 331.91-32.4 331.91-19.56 342.24-19.56 342.24-13.31ZM340.33-26.12L333.62-26.12 333.62-32.4 350.49-32.4 350.49-23.02 340.33-23.02 340.33-26.12ZM350.49 0L333.62 0 333.62-6.47 339.7-6.47 339.7-9.72 350.49-9.72 350.49 0ZM366.45 0L355.66 0 355.66-32.4 366.45-32.4 366.45 0ZM376.27-25.93L368.16-25.93 368.16-32.4 380.49-32.4 386.98-25.93 386.98-16.21 382-11.23 381.66-11.91 371.53-10.57 371.92-9.72 368.16-9.72 368.16-15.99 376.27-15.99 376.27-25.93ZM382-11.23L388.08 0 376.56 0 371.92-9.72 380.49-9.72 382-11.23Z" opacity="1" transform="matrix(1,0,0,1,0,0)" fill="#ffffff" class="slogan-text-1" data-fill-palette-color="secondary" id="text-1"></path></svg></g></svg></g></svg></g></svg></g><g transform="matrix(1,0,0,1,30.560000000000002,0)"><svg viewBox="0 0 98.88 81.33677419354838" height="81.33677419354838" width="98.88"><g><svg xmlns="http://www.w3.org/2000/svg" xmlns:xlink="http://www.w3.org/1999/xlink" version="1.1" x="0" y="0" viewBox="9 16 62 51" enable-background="new 0 0 80 80" xml:space="preserve" height="81.33677419354838" width="98.88" class="icon-icon-0" data-fill-palette-color="accent" id="icon-0"><g fill="#97978d" data-fill-palette-color="accent"><path fill="#ffffff" d="M31 51.7V30.3L51.1 41 31 51.7zM33 33.7v14.7L46.9 41 33 33.7z" data-fill-palette-color="accent"></path></g><g fill="#97978d" data-fill-palette-color="accent"><path fill="#ffffff" d="M66 62H9V16h57V62zM11 60h53V18H11V60z" data-fill-palette-color="accent"></path></g><g fill="#97978d" data-fill-palette-color="accent"><path fill="#ffffff" d="M71 67H14V21h57V67zM16 65h53V23H16V65z" data-fill-palette-color="accent"></path></g></svg></g></svg></g><g></g></svg></g></svg></g></svg></g></svg></g><defs></defs></svg><rect width="320" height="360" fill="none" stroke="none" visibility="hidden"></rect></g></svg></g></svg>